<svg xmlns="http://www.w3.org/2000/svg" viewBox="0 0 24 24" width="24" height="24">
  <g fill="none" stroke="currentColor" stroke-width="2" stroke-linecap="round" stroke-linejoin="round">
    <!-- Circular arrows indicating holding position -->
    <path d="M 12 4 A 8 8 0 0 1 20 12"/>
    <path d="M 20 12 A 8 8 0 0 1 12 20"/>
    <path d="M 12 20 A 8 8 0 0 1 4 12"/>
    <path d="M 4 12 A 8 8 0 0 1 12 4"/>
    
    <!-- Arrowheads -->
    <path d="M 12 4 L 10 2 L 10 6 Z"/>
    <path d="M 20 12 L 22 10 L 18 10 Z"/>
    <path d="M 12 20 L 14 22 L 14 18 Z"/>
    <path d="M 4 12 L 2 14 L 6 14 Z"/>
    
    <!-- Center dot -->
    <circle cx="12" cy="12" r="2" fill="currentColor"/>
  </g>
</svg>